# xmcd
#
# Track frame offsets:
#	150
#	16091
#	37881
#	55768
#	73986
#	93180
#	109202
#	126498
#	151155
#	172802
#	192323
#	210457
#	223703
#	242173
#
# Disc length: 3553 seconds
# Revision: 1
# Processed by: cddbd v1.5.2PL0 Copyright (c) Steve Scherf et al.
# Submitted via: dBpowerAMP V12.0
#
DISCID=bc0ddf0e
DTITLE=TheDeparted,Yukon,OK - Adventus
DYEAR=2012
DGENRE=Country-Rock
TTITLE0=Worth The Fight
TTITLE1=Burden
TTITLE2=Prayer For The Lonely
TTITLE3=Blackhorse Mary
TTITLE4=Hard To Find
TTITLE5=Hobo
TTITLE6=Flagpole
TTITLE7=Cold Hard Fact
TTITLE8=Demons
TTITLE9=Set It Free
TTITLE10=Better Get Right
TTITLE11=250,000 Things
TTITLE12=Mark It Wrong
TTITLE13=Sweet Lord
EXTD=
EXTT0=
EXTT1=
EXTT2=
EXTT3=
EXTT4=
EXTT5=
EXTT6=
EXTT7=
EXTT8=
EXTT9=
EXTT10=
EXTT11=
EXTT12=
EXTT13=
PLAYORDER=
